<svg
  aria-hidden="true"
  style="position: absolute; width: 0; height: 0; overflow: hidden"
  version="1.1"
  xmlns="http://www.w3.org/2000/svg"
  xmlns:xlink="http://www.w3.org/1999/xlink"
>
  <defs>
    <!-- features section -->

    <symbol id="icon-antenna" viewBox="0 0 64 64">
      <path
        fill="#2E2F42"
        d="m61.5 44.2-16.9-17 1.87-9.23c.484.189.998.288 1.52.291h.013c2.38.028 4.34-1.88 4.37-4.27s-1.88-4.34-4.27-4.37a4.323 4.323 0 0 0-4.12 5.77l-9.92 1.21-16.2-16.3a1.063 1.063 0 0 0-.753-.32 1.07 1.07 0 0 0-.747.31l-3.03 3.01a1.07 1.07 0 0 0 0 1.51l1.63 1.65c-6.31 11.6-4.26 26 5.04 35.3a1 1 0 0 0 .292.195 6.151 6.151 0 0 0-.104 1.09v12.4H7.39a5.337 5.337 0 0 0-5.33 5.33v2.13c0 .589.478 1.07 1.07 1.07h49.1a1.07 1.07 0 0 0 1.07-1.07v-2.13a5.337 5.337 0 0 0-5.33-5.33h-12.8v-5.48c2.01.421 4.05.635 6.1.64 4.92-.005 9.75-1.23 14.1-3.57l1.64 1.65c.198.202.47.318.753.32a1.07 1.07 0 0 0 .747-.31l3.03-3.01a1.07 1.07 0 0 0 0-1.51zm-15-31.7a2.137 2.137 0 0 1 3.02.008 2.137 2.137 0 0 1-1.508 3.641h-.007a2.127 2.127 0 0 1-1.49-3.64h-.005zm-2.51 7.01-1.2 5.89-2.35-2.36 3.55-3.53zm-1.21-1.8-3.84 3.82-2.97-2.99 6.81-.831zm5.17 39.9c1.77 0 3.2 1.43 3.2 3.2v1.07H4.25v-1.07c0-1.77 1.43-3.2 3.2-3.2h40.5zm-14.9-4.27v2.13h-10.7v-2.13h10.7zm-10.7-2.13V43.1c0-2.59 2.39-4.69 5.33-4.69s5.33 2.11 5.33 4.69v8.11h-10.7zm12.8-3.39v-4.71c0-3.76-3.35-6.83-7.47-6.83a7.592 7.592 0 0 0-6.56 3.57c-8.12-8.55-9.94-21.3-4.56-31.8l37.2 37.4a27.587 27.587 0 0 1-18.6 2.33zm22.6-1.37-42.1-42.4 1.51-1.5 15.9 16c.008 0 .012.014.02.02l26.2 26.4-1.51 1.5z"
      />
      <path
        fill="#4D5AE5"
        d="M27.8 40.5h-.01c-1.77-.003-3.2 1.43-3.2 3.2s1.43 3.2 3.2 3.2h.01c1.77.003 3.2-1.43 3.2-3.2a3.195 3.195 0 0 0-3.2-3.2zm.747 3.96a1.066 1.066 0 1 1-.755-1.821 1.067 1.067 0 0 1 .746 1.821h.01z"
      />
    </symbol>

    <symbol id="icon-clock" viewBox="0 0 64 64">
      <path
        fill="#2e2f42"
        d="M62.6 30.6C62.597 13.7 48.9 0 32 0 15.1.003 1.4 13.7 1.4 30.6c.003 13.3 8.61 25.1 21.3 29.2.121.038.247.058.374.057.241 0 .478-.065.685-.188.27-.16.472-.414.566-.713l7.73-24.5a3.83 3.83 0 0 0-.04-7.66 3.765 3.765 0 0 0-1.64.383l-10.2-10.2a1.272 1.272 0 0 0-1.8.031 1.272 1.272 0 0 0 0 1.77l10.2 10.2a3.758 3.758 0 0 0 1.07 4.62l-7.37 23.3c-14.6-5.36-22-21.5-16.6-36.1 5.36-14.6 21.5-22 36.1-16.6 14.6 5.36 22 21.5 16.6 36.1-2.62 7.11-8 12.9-14.9 15.9l-.796-3.75a1.273 1.273 0 0 0-2.095-.687l-7.67 6.85a1.274 1.274 0 0 0 .462 2.168l9.8 3.13c.67.215 1.39-.153 1.6-.824.068-.212.08-.438.034-.655l-.782-3.68c11.3-4.78 18.7-15.9 18.7-28.2zM32 29.32a1.28 1.28 0 1 1-.001 2.561A1.28 1.28 0 0 1 32 29.32zm4.2 29.7 4.37-3.9 1.21 5.68z"
      />
      <path
        fill="#4d5ae5"
        d="M30.7 6.37v2.55a1.28 1.28 0 1 0 2.56 0V6.37a1.28 1.28 0 0 0-2.56 0zM7.75 29.3a1.28 1.28 0 1 0 0 2.56h2.55a1.28 1.28 0 1 0 0-2.56zM56.2 31.9a1.28 1.28 0 1 0 0-2.56h-2.55a1.28 1.28 0 0 0 0 2.56z"
      />
    </symbol>

    <symbol id="icon-diagram" viewBox="0 0 64 64">
      <path
        fill="#4d5ae5"
        d="M29.9 29.9h2.13v9.6H29.9zM38.4 34.2h2.13v5.33H38.4zM21.3 37.4h2.13v2.13H21.3zM14.9 36.3h2.13v3.2H14.9z"
      />
      <path
        fill="#2e2f42"
        d="M3.2 56.6h51.2c1.77 0 3.2-1.43 3.2-3.2v-4.26c0-1.77-1.43-3.2-3.2-3.2h-1.07v-26.6l6.06-5.74a3.22 3.22 0 0 0 3.725-5.137 3.215 3.215 0 0 0-4.13-.396 3.2 3.2 0 0 0-1.08 4l-4.56 4.33v-2.46c0-1.77-1.43-3.2-3.2-3.2h-42.6c-1.77 0-3.2 1.43-3.2 3.2v32h-1.07c-1.77 0-3.2 1.43-3.2 3.2v4.26c0 1.77 1.43 3.2 3.2 3.2zM60.8 9.7a1.07 1.07 0 1 1 0 2.14 1.07 1.07 0 0 1 0-2.14zM6.4 13.96c0-.589.477-1.07 1.07-1.07h42.6c.589 0 1.07.477 1.07 1.07v4.48l-2.13 2.03V16.1a1.07 1.07 0 0 0-1.07-1.07H9.54a1.07 1.07 0 0 0-1.07 1.07v26.7c0 .589.477 1.07 1.07 1.07h38.4a1.07 1.07 0 0 0 1.07-1.07V23.5l2.13-2.02v24.6H6.34zm9.59 13.9a3.193 3.193 0 0 0-3.09 2.35 3.193 3.193 0 0 0 1.45 3.6c1.24.736 2.82.551 3.86-.452l3.71 1.86c.43.216.953.114 1.27-.245l7.88-8.86 7.74 5.8c.415.311.995.278 1.37-.079l6.73-6.38v16.3h-36.2v-24.5h36.2v5.32l-7.54 7.14-7.81-5.85a1.072 1.072 0 0 0-1.44.144l-7.99 8.99-2.99-1.49c.022-.128.035-.257.04-.387 0-1.77-1.43-3.2-3.2-3.2zm1.07 3.2a1.07 1.07 0 1 1-2.14 0 1.07 1.07 0 0 1 2.14 0zm6.4 17.1h10.7v1.07a1.07 1.07 0 0 1-1.07 1.07h-8.53a1.07 1.07 0 0 1-1.07-1.07zm-21.3 1.07c0-.589.477-1.07 1.07-1.07h18.1v1.07c0 1.77 1.43 3.2 3.2 3.2h8.53c1.77 0 3.2-1.43 3.2-3.2v-1.07h18.1c.589 0 1.07.477 1.07 1.07v4.26a1.07 1.07 0 0 1-1.07 1.07H3.16a1.07 1.07 0 0 1-1.07-1.07z"
      />
    </symbol>

    <symbol id="icon-astronaut" viewBox="0 0 64 64">
      <path
        fill="#4D5AE5"
        d="M63.9 9.05a1.067 1.067 0 0 0-.861-.725l-3.82-.556-1.71-3.46c-.358-.73-1.55-.73-1.91 0l-1.71 3.46-3.82.556a1.07 1.07 0 0 0-.862.725c-.125.386-.021.811.27 1.09l2.77 2.7-.653 3.81c-.068.4.096.804.424 1.04.332.241.765.271 1.12.081l3.42-1.8 3.42 1.8a1.07 1.07 0 0 0 1.124-.081c.328-.239.493-.643.424-1.04l-.653-3.81 2.77-2.7c.29-.284.394-.707.27-1.09zm-4.93 2.65a1.064 1.064 0 0 0-.306.944l.382 2.23-2-1.05a1.063 1.063 0 0 0-.994 0l-2 1.05.382-2.23a1.067 1.067 0 0 0-.306-.944l-1.62-1.58 2.24-.325c.348-.05.648-.269.803-.584l1-2.03 1 2.03c.156.315.456.533.803.584l2.24.325-1.62 1.58zM52.3 41h-2.13v2.13h2.13V41zM52.3 45.3h-2.13v2.13h2.13V45.3z"
      />
      <path
        fill="#4D5AE5"
        d="M54.4 43.2h-2.13v2.13h2.13V43.2zM50.1 43.2h-2.13v2.13h2.13V43.2zM44.8 52.8h-2.13v2.13h2.13V52.8zM44.8 57h-2.13v2.13h2.13V57z"
      />
      <path
        fill="#4D5AE5"
        d="M46.9 54.9h-2.13v2.13h2.13V54.9zM42.7 54.9h-2.13v2.13h2.13V54.9zM32 48.5h-2.13v2.13H32V48.5zM32 52.8h-2.13v2.13H32V52.8z"
      />
      <path
        fill="#4D5AE5"
        d="M34.1 50.6h-2.13v2.13h2.13V50.6zM29.9 50.6h-2.13v2.13h2.13V50.6zM11.7 12.2H9.57v2.13h2.13V12.2zM11.7 16.5H9.57v2.13h2.13V16.5zM13.9 14.4h-2.13v2.13h2.13V14.4z"
      />
      <path fill="#4D5AE5" d="M9.6 14.4H7.47v2.13H9.6V14.4z" />
      <path
        fill="#2E2F42"
        d="M49.4 28.3a3.57 3.57 0 0 0-2.38-1.41 3.557 3.557 0 0 0-2.68.704l-2.5 1.92-.001.001-3.8 2.83-2.72-1.08c4.84-2.17 8.23-7.02 8.23-12.6 0-7.65-6.25-13.9-13.9-13.9s-13.9 6.22-13.9 13.9c0 2.77.829 5.35 2.24 7.52l-5.53-.048h-.01c-.017 0-.03.009-.047.01a1.035 1.035 0 0 0-.31.062c-.025.01-.052.015-.076.026-.013.006-.026.007-.039.013l-6.47 3.19-.002.001-3.79 1.82a.83.83 0 0 0-.126.07 3.567 3.567 0 0 0 1.99 6.535 3.58 3.58 0 0 0 1.68-.422l2.78-1.48 4.53-2.34 2.71-.016-10.9 10.8c0 .002-.002.002-.003.003l-2.68 2.67a3.29 3.29 0 0 0-.98 2.36 3.331 3.331 0 0 0 3.34 3.331c.856 0 1.71-.324 2.36-.971l2.63-2.62 3.48-2.6 1.8 1.79-3.52 3.51c-.001 0-.002 0-.003.002l-2.68 2.67a3.29 3.29 0 0 0-.98 2.36c0 .89.348 1.73.98 2.36.65.646 1.51.97 2.36.97s1.71-.323 2.36-.97l6.96-6.93.002-.004 2.02-2-.008-.007c.013-.013.031-.017.044-.031l10.3-11.3 6.94.988a1.048 1.048 0 0 0 .524-.066c.035-.013.066-.03.1-.047.038-.02.078-.03.114-.054l6.43-4.27c.024-.016.036-.042.059-.059.025-.02.057-.029.08-.051l2.54-2.38a3.552 3.552 0 0 0 .425-4.72zM4.2 35.52c-.347.186-.74.223-1.12.104a1.428 1.428 0 0 1-.424-2.516l2.63-1.26.633 1.85.266.776-1.98 1.06zm6.99-3.66-3.1 1.6-.511-1.49-.367-1.07 4.05-2-.08 2.97zm30.2-13.2c0 1.84-.438 3.57-1.2 5.12l-8.36-3.8a3.728 3.728 0 0 0-1.58-2.78l2.93-9.72c4.76 1.51 8.21 5.95 8.21 11.2zm-23.6 0c0-6.47 5.29-11.7 11.8-11.7.506 0 1 .043 1.49.104l-2.86 9.51c-.038-.001-.075-.012-.114-.012-2.07 0-3.75 1.67-3.75 3.73s1.68 3.73 3.75 3.73c1.39 0 2.59-.767 3.24-1.89l7.72 3.51c-2.15 2.89-5.59 4.78-9.47 4.78-6.5 0-11.8-5.26-11.8-11.7zm11.9 1.6c0 .882-.723 1.6-1.61 1.6-.888 0-1.61-.718-1.61-1.6 0-.882.723-1.6 1.61-1.6.889 0 1.61.718 1.61 1.6zm-24.9 30a1.219 1.219 0 0 1-1.71.001 1.189 1.189 0 0 1 0-1.689L5 46.652l1.7 1.7-1.92 1.91zm6.43 7.47a1.217 1.217 0 0 1-1.71.001 1.189 1.189 0 0 1 0-1.689l1.93-1.92.805.801.898.894-1.92 1.91zm6.96-6.94-.003.002-3.53 3.52-.805-.8-.898-.895 3.53-3.51c0-.002.002-.002.003-.003.08-.08.13-.176.179-.271.014-.028.04-.051.052-.08.033-.082.038-.171.051-.257.007-.05.028-.095.028-.145 0-.071-.026-.141-.04-.211-.013-.064-.013-.129-.038-.191-.04-.1-.11-.189-.182-.275-.02-.023-.028-.053-.05-.076h-.001l-.002-.004-3.21-3.2c-.034-.034-.078-.048-.116-.077a1.013 1.013 0 0 0-.174-.115.995.995 0 0 0-.187-.065 1.017 1.017 0 0 0-.206-.04 1.036 1.036 0 0 0-.191.01 1.063 1.063 0 0 0-.208.04.995.995 0 0 0-.19.09c-.039.023-.084.03-.121.058l-3.55 2.65-1.8-1.79 4.8-4.77 8.72 8.58-1.86 1.84zm13.6-14c-.03-.004-.06.008-.09.005a1.04 1.04 0 0 0-.23.014.98.98 0 0 0-.369.136.992.992 0 0 0-.167.124c-.025.022-.056.033-.08.058l-9.4 10.3-8.66-8.51 5.67-5.64a1.063 1.063 0 0 0-.76-1.822l-4.44.026.056-3.22 6.21.054c2.53 2.59 6.06 4.2 9.96 4.2.875 0 1.73-.091 2.56-.245.08.064.16.129.26.17l4.82 1.92.66 3.29-6.01-.854zm8.08.356-.626-3.12 2.89-2.16.757 1 1.14 1.51-4.16 2.76zm7.51-5.66-1.68 1.57-1.86-2.47 1.66-1.27a1.47 1.47 0 0 1 1.09-.286c.386.054.728.256.96.568.433.584.36 1.4-.171 1.89z"
      />
      <path
        fill="#2E2F42"
        d="m27.2 37.1-4.29-4.27a1.071 1.071 0 0 0-1.51 0l-4.28 4.27c-.2.202-.314.472-.314.756 0 .284.112.556.314.756l4.28 4.27a1.065 1.065 0 0 0 1.505 0l4.29-4.27a1.063 1.063 0 0 0 0-1.512zm-5.04 3.52-2.77-2.76 2.77-2.76 2.77 2.76-2.77 2.76zM34.3 10.1l-.515 2.07c.142.035 3.48.904 3.48 4.3h2.13c0-4.03-3.33-5.93-5.09-6.37zM39.4 18.6h-2.13v2.13h2.13V18.6z"
      />
    </symbol>

    <!-- social-icons -->

    <symbol id="icon-instagram" viewBox="0 0 16 16">
      <path
        d="M16 4.7c-.037-.85-.175-1.43-.372-1.94a3.908 3.908 0 0 0-.925-1.42 3.926 3.926 0 0 0-1.42-.922c-.509-.197-1.09-.334-1.94-.372-.856-.04-1.13-.05-3.3-.05s-2.44.01-3.3.047c-.85.037-1.43.175-1.94.372a3.908 3.908 0 0 0-1.42.925c-.406.4-.722.885-.922 1.42C.264 3.27.127 3.85.089 4.7c-.04.856-.05 1.13-.05 3.3s.01 2.44.047 3.3c.037.85.175 1.43.372 1.94.203.538.519 1.02.925 1.42.4.406.885.722 1.42.922.51.197 1.09.334 1.94.372.853.037 1.13.047 3.3.047s2.44-.01 3.3-.047c.85-.038 1.43-.175 1.94-.372a4.075 4.075 0 0 0 2.34-2.34c.197-.51.334-1.09.372-1.94.037-.853.047-1.13.047-3.3s-.004-2.44-.041-3.3zm-1.44 6.53c-.035.781-.166 1.2-.275 1.48a2.658 2.658 0 0 1-1.52 1.52c-.281.109-.706.241-1.48.275-.844.038-1.1.047-3.23.047s-2.39-.01-3.23-.047c-.781-.034-1.2-.166-1.48-.275a2.453 2.453 0 0 1-.919-.597 2.477 2.477 0 0 1-.597-.919c-.109-.281-.241-.706-.275-1.48-.038-.844-.047-1.1-.047-3.23s.01-2.39.047-3.23c.034-.781.166-1.2.275-1.48.128-.347.331-.663.6-.919.259-.266.572-.469.919-.597.281-.109.706-.241 1.48-.275.844-.038 1.1-.047 3.23-.047 2.14 0 2.39.01 3.23.047.781.034 1.2.166 1.48.275.347.128.663.331.919.597.266.259.469.572.597.919.109.281.241.706.275 1.48.038.844.047 1.1.047 3.23s-.01 2.38-.047 3.23z"
      />
      <path
        d="M8.03 3.89a4.11 4.11 0 1 0 0 8.22 4.11 4.11 0 0 0 0-8.22zm0 6.78c-1.47 0-2.67-1.19-2.67-2.67s1.19-2.67 2.67-2.67C9.5 5.33 10.7 6.52 10.7 8s-1.19 2.67-2.67 2.67zM13.3 3.73a.96.96 0 1 1-1.92 0 .96.96 0 0 1 1.92 0z"
      />
    </symbol>

    <symbol id="icon-twitter" viewBox="0 0 16 16">
      <path
        fill="#none"
        d="M16 3.04a6.848 6.848 0 0 1-1.89.518 3.23 3.23 0 0 0 1.44-1.81 6.519 6.519 0 0 1-2.08.794 3.291 3.291 0 0 0-2.4-1.04c-1.82 0-3.28 1.47-3.28 3.28 0 .26.022.51.076.748a9.278 9.278 0 0 1-6.76-3.43 3.291 3.291 0 0 0 1.011 4.39 3.238 3.238 0 0 1-1.48-.404v.036c0 1.59 1.14 2.92 2.63 3.22a3.274 3.274 0 0 1-.86.108 2.9 2.9 0 0 1-.621-.056 3.302 3.302 0 0 0 3.06 2.28 6.596 6.596 0 0 1-4.07 1.4c-.269 0-.527-.012-.785-.045a9.236 9.236 0 0 0 5.03 1.47c6.04 0 9.34-5 9.34-9.33 0-.145-.005-.285-.012-.424a6.483 6.483 0 0 0 1.64-1.7z"
      />
    </symbol>

    <symbol id="icon-facebook" viewBox="0 0 16 16">
      <path
        d="M10.7 2.66h1.46V.12a18.86 18.86 0 0 0-2.13-.113c-2.11 0-3.55 1.32-3.55 3.76v2.24H4.16v2.84h2.32v7.16h2.85v-7.16h2.23l.354-2.84h-2.58v-1.96c0-.822.222-1.38 1.37-1.38z"
      />
    </symbol>

    <symbol id="icon-linkedin" viewBox="0 0 16 16">
      <path
        d="M16 16h.004v-5.87c0-2.87-.618-5.08-3.97-5.08-1.61 0-2.7.884-3.14 1.72h-.047V5.31h-3.18v10.7h3.31v-5.29c0-1.39.264-2.74 1.99-2.74 1.7 0 1.72 1.59 1.72 2.83v5.2zM.264 5.32h3.32v10.7H.264zM1.92 0C.86 0 0 .86 0 1.92s.861 1.94 1.92 1.94c1.06 0 1.92-.88 1.92-1.94S2.979 0 1.92 0z"
      />
    </symbol>

    <!-- footer-icons -->

    <symbol id="icon-send" viewBox="0 0 24 24">
      <path
        fill="#fff"
        d="M24 2 0 13.2l7.67 2.37 11.8-9.24-9 10.1.007.002-.009-.002v5.51l4.3-4.18 5.45 1.68 3.75-17.5z"
      />
    </symbol>

    <!-- modal icons -->

    <symbol id="icon-close" viewBox="0 0 8 8">
      <path
        d="M8 .806 7.194 0 4 3.194.806 0 0 .806 3.194 4 0 7.194.806 8 4 4.806 7.194 8 8 7.194 4.806 4 8 .806Z"
      />
    </symbol>

    <symbol id="icon-user" viewBox="0 0 18 18">
      <path
        d="M9 9c1.66 0 3-1.34 3-3s-1.34-3-3-3-3 1.34-3 3 1.34 3 3 3zm0 1.5c-2 0-6 1-6 3v.75c0 .412.338.75.75.75h10.5c.412 0 .75-.338.75-.75v-.75c0-2-4-3-6-3z"
      />
    </symbol>

    <symbol id="icon-tel" viewBox="0 0 13 13">
      <path
        d="m11.7 8.87-1.84-.21a1.45 1.45 0 0 0-1.19.412l-1.33 1.33a10.836 10.836 0 0 1-4.77-4.77l1.34-1.34c.311-.311.463-.745.412-1.19l-.21-1.82a1.447 1.447 0 0 0-1.44-1.28h-1.25c-.818 0-1.5.68-1.45 1.5.384 6.18 5.33 11.1 11.5 11.5.818.05 1.5-.63 1.5-1.45v-1.25a1.426 1.426 0 0 0-1.27-1.43z"
      />
    </symbol>

    <symbol id="icon-email" viewBox="0 0 16 12">
      <path
        d="M14 0H2C1.175 0 .51.675.51 1.5l-.007 9c0 .825.675 1.5 1.5 1.5h12c.824 0 1.5-.675 1.5-1.5v-9c0-.825-.676-1.5-1.5-1.5zm-.3 3.19L8.4 6.51a.758.758 0 0 1-.795 0l-5.3-3.32a.637.637 0 1 1 .675-1.08L8 5.25l5.02-3.14a.637.637 0 1 1 .675 1.08z"
      />
    </symbol>

    <symbol id="icon-checkbox" viewBox="0 0 10 8">
      <path
        d="M8.46.489c.164-.144.383-.224.61-.223s.444.085.606.231a.78.78 0 0 1 .262.555.772.772 0 0 1-.23.567l-4.66 5.37a.892.892 0 0 1-.625.258.944.944 0 0 1-.344-.058.878.878 0 0 1-.291-.178L.698 4.16c-.086-.074-.155-.163-.203-.262a.753.753 0 0 1-.012-.631.808.808 0 0 1 .193-.27.89.89 0 0 1 .29-.177.94.94 0 0 1 .685.01.886.886 0 0 1 .284.188l2.44 2.25 4.05-4.77a.308.308 0 0 1 .023-.024h-.001z"
      />
    </symbol>
  </defs>
</svg>
